<?xml version="1.0" encoding="UTF-8" standalone="no"?>
<!-- Created with Inkscape (http://www.inkscape.org/) -->

<svg
   xmlns:dc="http://purl.org/dc/elements/1.1/"
   xmlns:cc="http://creativecommons.org/ns#"
   xmlns:rdf="http://www.w3.org/1999/02/22-rdf-syntax-ns#"
   xmlns:svg="http://www.w3.org/2000/svg"
   xmlns="http://www.w3.org/2000/svg"
   xmlns:sodipodi="http://sodipodi.sourceforge.net/DTD/sodipodi-0.dtd"
   xmlns:inkscape="http://www.inkscape.org/namespaces/inkscape"
   version="1.1"
   id="svg885"
   width="200"
   height="200"
   viewBox="0 0 200 200"
   sodipodi:docname="404.svg"
   inkscape:version="0.92.2 2405546, 2018-03-11">
  <metadata
     id="metadata891">
    <rdf:RDF>
      <cc:Work
         rdf:about="">
        <dc:format>image/svg+xml</dc:format>
        <dc:type
           rdf:resource="http://purl.org/dc/dcmitype/StillImage" />
        <dc:title></dc:title>
      </cc:Work>
    </rdf:RDF>
  </metadata>
  <defs
     id="defs889" />
  <sodipodi:namedview
     pagecolor="#ffffff"
     bordercolor="#666666"
     borderopacity="1"
     objecttolerance="10"
     gridtolerance="10"
     guidetolerance="10"
     inkscape:pageopacity="0"
     inkscape:pageshadow="2"
     inkscape:window-width="640"
     inkscape:window-height="480"
     id="namedview887"
     showgrid="false"
     inkscape:measure-start="0,0"
     inkscape:measure-end="0,0"
     inkscape:zoom="1"
     inkscape:cx="-267.10836"
     inkscape:cy="134.50144"
     inkscape:current-layer="svg885" />
  <path
     style="opacity:1;vector-effect:none;fill:#000000;fill-opacity:0.40944884;stroke:none;stroke-width:8.65486813;stroke-linecap:round;stroke-linejoin:round;stroke-miterlimit:4;stroke-dasharray:none;stroke-dashoffset:0;stroke-opacity:1;marker:none;marker-start:none;marker-mid:none;marker-end:none;paint-order:normal"
     d="M 100.625,18.999999 A 84.375001,84.375001 0 0 0 16.25,103.375 84.375001,84.375001 0 0 0 100.625,187.75 84.375001,84.375001 0 0 0 185,103.375 84.375001,84.375001 0 0 0 100.625,18.999999 Z m 2.81475,3.522702 c 20.59169,0.394273 41.13673,9.191931 55.96457,24.302733 5.82413,5.935265 12.87699,16.39303 16.14672,23.938191 2.21271,5.106017 2.34314,5.753543 1.36924,6.727451 -1.4143,1.413874 -1.42804,2.828574 -0.0173,1.657483 1.3062,-1.084058 1.28895,-1.101711 2.62402,3.141171 4.52943,14.394653 2.73177,43.71385 -2.87837,46.95224 -1.0162,0.58658 -2.27181,1.98334 -2.79357,3.10303 -0.52176,1.11967 -1.17178,2.48493 -1.44129,3.03517 -0.26951,0.55027 -1.82664,1.44401 -3.4591,1.98815 -2.256,0.75199 -3.44174,1.74014 -4.95126,4.12041 -2.20214,3.47244 -3.57458,4.6175 -6.34592,5.29039 -1.02579,0.24909 -3.00304,1.84401 -4.39596,3.54389 -1.98906,2.42737 -3.34196,3.32549 -6.29506,4.18397 -2.06801,0.6012 -4.80491,2.01044 -6.0831,3.1327 -4.5207,3.96922 -9.21704,4.51292 -15.15053,1.75075 -5.05904,-2.35512 -7.36902,-2.22871 -11.63209,0.64012 -1.9486,1.31132 -4.24889,2.58475 -5.10811,2.8317 -2.67076,0.76777 -3.61762,0.91936 -4.3366,0.68674 -0.38199,-0.12377 -1.53433,-0.40712 -2.55617,-0.63163 -1.02186,-0.22448 -3.080648,-1.69866 -4.578228,-3.27258 -2.810881,-2.95416 -2.565514,-2.87628 -10.601977,-3.32769 -0.587088,-0.033 -2.475492,-1.38628 -4.196715,-3.00976 -2.007333,-1.89334 -4.272452,-3.25731 -6.316255,-3.79823 -2.58368,-0.68381 -3.645311,-1.47966 -5.612564,-4.2179 -1.503572,-2.09289 -3.319823,-3.70438 -4.773224,-4.23486 -8.184922,-2.98741 -9.684559,-4.83807 -10.322197,-12.72153 -0.256419,-3.17023 -0.978114,-6.73963 -1.602388,-7.93559 -1.258367,-2.41069 -4.606976,-5.48598 -6.702006,-6.15093 -1.862891,-0.59124 -4.111237,-4.42976 -4.294203,-7.33364 -0.08319,-1.31979 0.270257,-4.0209 0.78423,-6.00258 0.750292,-2.89231 0.770637,-4.336188 0.101724,-7.325153 -0.708317,-3.165128 -0.664611,-4.188449 0.305211,-6.816458 0.692003,-1.875134 1.119296,-5.034702 1.085208,-8.028861 -0.04112,-3.620841 0.308998,-5.650251 1.309892,-7.613405 0.950397,-1.864177 1.364988,-4.072942 1.364988,-7.282777 0,-3.606339 0.298745,-4.957124 1.381937,-6.20605 1.300518,-1.499501 2.772167,-5.478024 2.780852,-7.520149 0.0027,-0.502976 0.756838,-1.908234 1.67868,-3.124208 0.921842,-1.216001 2.449019,-3.931287 3.391286,-6.032241 0.942281,-2.100968 2.812478,-4.994621 4.158555,-6.434942 C 66.279349,29.352321 80.778755,24.2604 94.626305,22.87454 97.553303,22.581598 100.49772,22.466348 103.4394,22.522701 Z M 80.273086,28.46166 c -0.349322,0 -1.023511,0.626438 -1.500637,1.390432 -0.477207,0.763981 -0.758151,1.390405 -0.623151,1.390405 0.135,0 0.809229,-0.626424 1.500651,-1.390405 0.691422,-0.763994 0.972446,-1.390432 0.623137,-1.390432 z m -12.903808,5.239542 c -0.181303,-0.01082 -0.587426,0.501245 -1.051296,1.36074 -0.618511,1.145972 -1.62207,2.489993 -2.229772,2.988559 -0.939522,0.770839 -0.87443,0.793565 0.440873,0.156914 1.629672,-0.788884 2.9886,-2.779539 2.941932,-4.315401 -0.0041,-0.125666 -0.04139,-0.187309 -0.101724,-0.190772 z m -8.384934,0.60194 c 0.225063,0.225226 0.277778,0.50529 0.118632,0.623151 -0.159159,0.117821 -1.927551,1.370723 -3.933884,2.780838 -3.319809,2.33324 -5.036054,3.096816 -5.036054,2.242474 0,-0.648839 8.455044,-6.042657 8.851238,-5.646463 z m 17.965294,1.403148 c -0.24906,0.0721 -0.423911,0.490207 -0.423911,1.102157 0,0.815911 -0.913942,2.397616 -2.030533,3.514221 -1.11659,1.11659 -1.717313,2.030532 -1.335309,2.030532 1.089442,0 4.756261,-3.940485 4.756261,-5.112361 0,-0.579823 -0.313219,-1.2476 -0.69521,-1.483687 -0.0955,-0.05898 -0.188283,-0.07494 -0.271298,-0.05073 z m -21.848316,4.565502 c 1.29412,0 1.064768,0.319956 -1.31836,1.865205 -1.582612,1.026203 -3.434519,2.901269 -4.116161,4.167036 -1.352449,2.511338 -3.005522,3.063567 -3.005522,1.004668 0,-2.878084 4.989575,-7.036909 8.440043,-7.036909 z m 6.858866,1.411616 c -0.100236,0.03774 -0.02259,0.316925 0.178043,0.852056 0.635379,1.695251 -0.519737,4.396427 -2.793567,6.532458 l -1.920314,1.8016 2.1577,-1.097923 c 2.25239,-1.147527 4.442569,-3.892816 4.442569,-5.570157 0,-0.539675 -0.529692,-1.413009 -1.17423,-1.937277 -0.513392,-0.417607 -0.789912,-0.618443 -0.890201,-0.580757 z m 11.449799,4.421385 c -0.212822,0.02543 -0.165017,0.514448 0.05938,1.636287 0.429336,2.146635 -0.283689,4.107368 -2.19586,6.019512 -1.899388,1.899442 -0.126613,1.185457 1.91608,-0.771502 2.161583,-2.070952 2.583465,-5.077664 0.907165,-6.468867 -0.336431,-0.279226 -0.559046,-0.430688 -0.686728,-0.41543 z m -23.556662,3.33193 c 0.261478,0.01731 0.5125,0.06994 0.750319,0.161053 0.996917,0.382532 0.846158,0.664016 -0.91988,1.738024 -2.826451,1.718855 -5.108113,4.729707 -5.108113,6.740166 0,1.547156 -1.289643,2.203394 -2.314547,1.178476 C 39.712702,56.706 45.931088,49.16625 49.853325,49.436683 Z m -9.334492,1.322594 c 0.249358,0.02773 -0.01217,0.858914 -0.966522,2.475641 l -1.500637,2.547698 1.526082,-0.398493 c 0.840206,-0.219706 1.353016,-0.119579 1.140317,0.224684 -0.212808,0.344318 -0.998134,0.955984 -1.746519,1.35652 -2.156442,1.154088 -2.469553,-1.040392 -0.551078,-3.857591 1.090592,-1.601468 1.848986,-2.37627 2.098357,-2.348459 z m 18.007688,2.734224 c -0.466711,-0.08116 -0.561062,0.426075 -0.03815,1.403134 1.035334,1.934531 0.296067,4.837559 -1.810095,7.108967 -2.327519,2.510067 -1.004262,2.406233 1.716826,-0.135662 2.307946,-2.155915 2.966159,-5.927474 1.322608,-7.571025 -0.497187,-0.497173 -0.911169,-0.75673 -1.191192,-0.805414 z m 10.055132,4.48921 1.195427,1.716813 c 1.667601,2.397751 1.521212,6.356295 -0.317927,8.694392 l -1.509118,1.920328 1.538783,-0.826625 c 0.847037,-0.453319 2.054787,-1.903635 2.683348,-3.221725 1.377893,-2.889487 0.698605,-5.479526 -1.877906,-7.164077 z m -32.658001,1.983891 c 0.198063,0.169291 -0.02435,1.114372 -0.792712,2.725742 -1.369412,2.871672 -0.933543,4.867291 0.911399,4.175504 1.090091,-0.40872 1.125045,-0.320808 0.288261,0.707925 -0.524268,0.64451 -1.537985,1.169995 -2.255203,1.169995 -1.811733,0 -1.744679,-3.786993 0.122961,-6.850384 0.909072,-1.491128 1.527231,-2.098087 1.725321,-1.928782 z m 8.817313,1.352272 c 0.603929,0.04153 0.266577,0.824136 -1.068245,2.263685 -0.956119,1.031127 -1.91976,2.799275 -2.144985,3.925389 -0.428943,2.14466 0.510078,4.709647 1.725308,4.709647 0.391026,0 0.520102,0.313205 0.284027,0.695196 -0.59335,0.960042 -3.368033,0.871074 -4.378991,-0.139775 -2.156158,-2.156132 0.0537,-8.929439 3.49301,-10.707949 1.025378,-0.53026 1.727527,-0.771001 2.089876,-0.746084 z m 7.52441,6.036475 1.394653,2.365409 c 1.488625,2.523066 1.334471,4.940486 -0.500204,7.880482 -0.758543,1.215636 -0.776831,1.556153 -0.08901,1.538784 2.096139,-0.05235 5.396375,-4.594856 5.396375,-7.42688 0,-2.256069 -2.017574,-4.357795 -4.183985,-4.357795 z m -22.365482,0.05519 c 0.438912,-0.189487 0.258813,0.96414 -0.707925,3.149639 -0.77901,1.76106 -1.277225,3.930299 -1.106405,4.824099 0.301166,1.575428 -1.14029,2.949101 -1.865205,1.77617 -0.474096,-0.767092 0.903404,-5.577867 2.259438,-7.893185 0.67128,-1.146174 1.156739,-1.74311 1.420097,-1.856723 z m 140.292927,0.847808 c -0.15454,-0.051 -0.37288,-9.2e-4 -0.64856,0.169507 -0.3556,0.219747 -0.64239,1.239958 -0.63587,2.267906 l 0.0135,1.869452 0.91986,-1.73379 c 0.72278,-1.364636 0.81537,-2.420084 0.35186,-2.573143 z M 33.990623,70.322819 c 0.304453,0.01515 -0.100777,0.91685 -1.216624,2.746953 -1.660811,2.723956 -1.869344,7.346421 -0.356086,7.927097 0.570842,0.219043 0.864217,0.675419 0.652816,1.017383 -0.540555,0.8747 -1.957554,0.772435 -2.941931,-0.21205 -1.843467,-1.843467 -0.368951,-7.964567 2.543464,-10.559584 0.695291,-0.619471 1.135678,-0.929173 1.318361,-0.91988 z m 31.568559,4.073794 c -1.566893,0.05749 -1.974165,0.213132 -1.03858,0.394233 0.846442,0.163866 2.360038,1.268391 3.361608,2.458663 1.436925,1.707777 1.767161,2.734819 1.564228,4.862232 -0.222412,2.332294 -0.138936,2.533239 0.631619,1.479481 1.379583,-1.886713 1.099587,-6.025775 -0.525648,-7.770278 -1.011201,-1.08541 -2.152777,-1.491831 -3.993227,-1.424331 z m -23.950907,0.852056 c 1.080676,-0.128913 1.037322,0.547183 -0.313692,1.805861 -2.252485,2.098033 -3.280095,5.927583 -2.255204,8.401884 0.465385,1.123516 1.118363,2.043248 1.454023,2.043248 0.335647,0 0.610422,0.313219 0.610422,0.695209 0,1.181805 -3.191533,0.763697 -4.404422,-0.576536 -2.634259,-2.910833 -0.447232,-10.477542 3.459111,-11.962718 0.60405,-0.229663 1.089536,-0.364013 1.449762,-0.406948 z m -16.375635,4.9894 c 0.28285,0.0081 0.324717,1.247708 0.101723,3.408249 -0.295079,2.858699 -0.161729,4.142471 0.474773,4.535824 0.488191,0.301762 0.673661,0.897885 0.411195,1.322594 -0.755107,1.221791 -2.284205,0.89771 -2.666399,-0.563794 -0.430999,-1.64815 0.659891,-7.747674 1.543031,-8.630788 0.05019,-0.05018 0.09523,-0.07318 0.13565,-0.0721 z m 147.51213,1.008915 c -1.33424,0 -2.46978,2.191518 -2.40358,4.641808 0.0523,1.934072 0.0621,1.930203 0.91566,-0.432378 0.47476,-1.313937 1.23175,-2.511744 1.68291,-2.662152 1.16585,-0.388618 1.02039,-1.547278 -0.19489,-1.547278 z m -94.16308,1.123368 c -0.34962,0.0041 -0.689081,0.03544 -1.013149,0.09739 -2.031371,0.388714 -2.00874,0.418216 1.017383,1.153019 3.417435,0.829845 6.174221,3.963495 6.396795,7.278556 0.06669,0.993995 0.240349,0.48972 0.385765,-1.11912 0.145524,-1.608908 -0.09171,-3.585034 -0.525648,-4.395968 -0.91501,-1.709738 -3.813872,-3.040597 -6.261146,-3.01399 z m -26.731758,0.381517 c -0.777007,-0.112681 -1.568502,0.02949 -2.297584,0.491735 -0.742094,0.470349 -0.698455,0.673864 0.207708,1.021617 2.786492,1.069273 3.511502,7.179809 1.263251,10.644371 -0.905825,1.395884 -0.87171,1.484879 0.462057,1.136084 2.453916,-0.641724 4.900406,-4.189857 4.900406,-7.108954 0,-3.20882 -2.204815,-5.84715 -4.535838,-6.184853 z m -21.89493,2.026285 c 0.290642,0.106728 0.235547,0.955605 -0.394246,2.462925 -1.450006,3.470338 -0.551728,7.334165 1.839774,7.914381 l 1.71684,0.415443 -1.5176,0.826625 c -1.931907,1.05139 -1.873727,1.058451 -3.23444,-0.445108 -1.45704,-1.609976 -1.507753,-6.446507 -0.0932,-9.181894 0.755581,-1.461124 1.392272,-2.099074 1.682928,-1.992372 z m 134.625258,2.11954 c -1.72105,-0.08644 -3.32345,1.428958 -3.32345,3.141185 0,0.301112 0.47494,-0.126748 1.0513,-0.949559 0.57633,-0.82285 1.74667,-1.632214 2.60281,-1.797393 1.34414,-0.259125 1.29754,-0.312624 -0.33066,-0.394233 z m 14.6164,2.734224 c -0.60892,0.166694 -1.19509,1.419461 -1.53455,3.420951 l -0.41118,2.433233 0.78848,-2.085615 c 0.43477,-1.145985 1.12537,-2.29895 1.53455,-2.564662 0.40907,-0.265711 0.51495,-0.71439 0.23314,-0.996186 -0.19903,-0.199037 -0.40745,-0.263318 -0.61044,-0.207721 z M 38.577322,90.378002 c 0.06574,0.01082 0.122285,0.04166 0.169575,0.08901 0.142819,0.142805 -0.241945,1.539054 -0.856303,3.103025 -1.344954,3.423982 -0.635974,7.615293 1.487935,8.791853 0.758706,0.4203 1.524188,0.85866 1.704112,0.975 0.179923,0.11634 -0.129048,0.50091 -0.690976,0.85629 -3.624276,2.29207 -7.433359,-2.66696 -6.214518,-8.09242 0.4916,-2.188218 3.413769,-5.891614 4.400189,-5.722783 z m 25.443063,0.788452 c -0.921558,-0.04342 -1.867613,0.122555 -2.789319,0.504451 -2.591811,1.073547 -2.664546,2.069274 -0.15686,2.098357 1.050484,0.01353 2.408451,0.403674 3.018238,0.869018 1.76198,1.34459 3.562214,5.38517 3.213229,7.2107 -0.304426,1.59254 -0.256621,1.61864 0.979237,0.50021 1.845875,-1.67038 1.797692,-7.401127 -0.07629,-9.275138 -1.182265,-1.182291 -2.652263,-1.835323 -4.188206,-1.907598 z m 96.736215,0.06777 c -0.073,0.07291 -0.11891,0.3161 -0.13565,0.720641 -0.0302,0.732084 0.13378,1.14221 0.36455,0.911398 0.23072,-0.230771 0.25566,-0.829709 0.0551,-1.331075 -0.11079,-0.277007 -0.211,-0.373983 -0.28402,-0.300964 z m -66.60895,0.309459 c -1.28994,-0.03517 -2.549322,0.168641 -3.361594,0.62315 -0.723427,0.404852 -0.03544,0.628035 2.153452,0.69943 3.615227,0.117821 6.690278,2.402013 7.600702,5.646504 0.38148,1.359455 0.58816,1.529203 0.79696,0.648554 0.42067,-1.773572 -1.718435,-5.781124 -3.637153,-6.80799 -0.938494,-0.502232 -2.262427,-0.774532 -3.552367,-0.809648 z m -70.496188,0.818143 c 0.277156,0 0.374416,2.033373 0.21619,4.518875 -0.172768,2.713283 0.01691,4.886179 0.47902,5.442989 0.42341,0.51012 0.565025,1.13487 0.313692,1.3862 -0.867097,0.86714 -1.450073,0.45176 -2.327262,-1.66597 -0.701161,-1.6926 -0.707546,-2.894881 -0.03395,-5.905056 0.465115,-2.078324 1.075063,-3.777038 1.352273,-3.777038 z m 130.873668,1.458257 c -2.24846,-0.102265 -5.01514,2.682185 -5.45149,5.485383 l -0.38151,2.428994 1.03433,-2.725737 c 1.01572,-2.679047 2.16924,-3.772385 4.93432,-4.671474 1.31456,-0.42736 1.30643,-0.451614 -0.13565,-0.517166 z m 19.4193,1.538784 c -1.27876,0.05248 -2.96944,2.501666 -2.89955,4.544305 0.0582,1.704248 0.11092,1.671378 0.7249,-0.457823 0.37764,-1.309811 1.29033,-2.522944 2.13649,-2.83596 1.12556,-0.416363 1.25965,-0.683807 0.55533,-1.119107 -0.15953,-0.09848 -0.33449,-0.138909 -0.51717,-0.131348 z m -144.574433,2.903771 -0.551078,1.738042 c -1.316331,4.13039 0.116062,10.41546 2.373903,10.41546 0.53183,0 0.77019,0.31321 0.534116,0.6952 -0.750251,1.21394 -3.004968,0.75075 -4.124642,-0.84781 -1.629699,-2.32672 -1.431623,-8.31913 0.34337,-10.360358 z m 20.203548,1.080988 c -1.288222,0.04018 -2.578878,0.625139 -3.658337,1.810084 -0.926035,1.01657 -1.276305,1.61199 -0.775763,1.32261 1.432677,-0.82831 4.961047,1.00019 6.070387,3.14541 0.554974,1.0732 1.008902,3.10795 1.008902,4.52311 0,2.52053 0.02611,2.54627 1.373469,1.32684 1.826085,-1.65258 2.474234,-5.41055 1.386185,-8.03734 -1.12234,-2.70955 -3.257829,-4.15766 -5.404843,-4.090714 z m 27.651625,0.614655 c -1.057788,0.01082 -2.061184,0.330059 -2.903771,0.970769 -1.016937,0.77321 -0.875173,0.88843 1.131836,0.9453 4.285614,0.12161 7.554061,3.55943 7.554061,7.93984 0,1.98561 0.08427,2.06573 0.928375,0.91141 1.731423,-2.36788 1.143726,-5.78295 -1.43706,-8.36375 -1.593446,-1.59343 -3.510446,-2.422966 -5.273441,-2.403569 z m 31.58552,0.737589 c -1.59944,0 -5.54833,2.65857 -4.90464,3.30228 0.20188,0.20185 0.76382,0.0532 1.25054,-0.33064 2.60761,-2.05595 7.89785,-1.31159 10.17383,1.4328 1.5009,1.80978 1.6741,1.3485 0.33914,-0.9114 -1.22699,-2.07709 -4.00804,-3.49304 -6.85887,-3.49304 z m 32.179,0.81817 c -2.97706,-0.15693 -6.49534,2.30607 -7.17256,5.77789 l -0.40695,2.08562 1.00467,-2.17042 c 0.55285,-1.19248 1.73171,-2.67601 2.61976,-3.29802 1.66194,-1.16409 6.06104,-1.5343 7.25733,-0.61043 0.37099,0.2865 0.0872,-0.0267 -0.63162,-0.6952 -0.74658,-0.69423 -1.67827,-1.03713 -2.67063,-1.08944 z m 23.97209,0.56804 c -1.6142,0 -4.4003,3.52153 -4.34083,5.48539 0.0322,1.06144 0.20885,1.37873 0.43239,0.76728 0.74857,-2.04784 3.25439,-4.16705 4.92582,-4.16705 1.43264,0 1.56361,-0.16495 0.83509,-1.0428 -0.47553,-0.573 -1.30801,-1.04282 -1.85247,-1.04282 z m 15.16326,0.75031 c -0.18796,-0.0108 -0.43744,0.0647 -0.73762,0.2501 -0.8416,0.52014 -2.17362,4.99661 -2.08138,6.99028 0.0354,0.764 0.42479,0.0991 0.86478,-1.47521 0.43999,-1.5743 1.23577,-3.37881 1.76769,-4.01019 0.77033,-0.91436 0.75021,-1.72146 0.18645,-1.75498 z m -157.605413,3.0691 0.856289,4.32389 c 0.472324,2.3774 1.254134,4.80059 1.738037,5.38366 0.728216,0.87754 0.684131,1.05977 -0.26283,1.05977 -1.558777,0 -2.515694,-2.8367 -2.416284,-7.16407 z m 13.675324,1.14033 c 0.444404,0.0349 0.642589,0.7802 0.373035,2.21705 -0.256297,1.36617 -0.101858,3.55532 0.351853,4.93006 0.823567,2.49546 3.223821,4.80999 4.298437,4.14584 0.319753,-0.19749 0.580757,-0.0392 0.580757,0.35185 0,0.3911 -0.604916,1.03315 -1.343791,1.42857 -0.738874,0.39543 -1.443553,0.70257 -1.564228,0.67826 -4.239324,-0.85107 -6.76726,-7.35982 -4.548553,-11.70838 0.715297,-1.40189 1.408085,-2.07807 1.85249,-2.04325 z m 26.261206,1.29293 c -2.060224,0 -5.379412,1.78881 -5.379412,2.89953 0,0.36066 0.322715,0.45683 0.712173,0.21617 0.389457,-0.24072 1.816007,-0.0712 3.175083,0.37728 2.948573,0.97314 5.137684,4.18895 5.142026,7.55408 0.0027,2.31305 0.03233,2.33663 1.377703,1.11912 4.211026,-3.81094 0.75811,-12.1662 -5.027573,-12.1662 z m 30.487599,1.39042 c -3.60377,0 -5.00666,1.07993 -1.530316,1.17846 1.265064,0.0358 2.982675,0.43196 3.815184,0.8775 1.762291,0.94316 4.209322,4.69191 4.213664,6.4519 0.0014,0.66848 0.16085,1.21239 0.351852,1.21239 0.190989,0 0.3476,-1.27438 0.3476,-2.83172 0,-4.11959 -2.895353,-6.88853 -7.197984,-6.88853 z m 80.737854,0.30945 c -2.0554,-0.15019 -4.12306,3.2526 -4.0102,7.46931 l 0.0805,2.98431 0.49597,-2.54347 c 0.68739,-3.52925 2.5441,-6.1382 4.37052,-6.1382 1.36898,0 1.41787,-0.10808 0.45781,-1.06825 -0.44654,-0.44657 -0.92033,-0.66904 -1.39465,-0.7037 z m -49.24137,0.30946 c -1.38644,0.1439 -2.78681,0.76581 -4.10344,1.87368 -1.1753,0.98895 -2.14074,2.06531 -2.14074,2.39508 0,0.32981 0.82899,-0.16539 1.83976,-1.10217 2.44346,-2.26459 6.87701,-2.33923 9.70329,-0.16104 1.7597,1.35614 1.88123,1.37746 0.99619,0.17385 -1.71987,-2.33908 -3.9843,-3.41914 -6.29506,-3.17932 z m 29.19044,0.17385 c -2.82298,-0.22709 -5.58494,2.14008 -5.8754,5.80331 -0.12106,1.52734 -0.0775,2.23372 0.0933,1.56848 0.17085,-0.66524 1.27539,-2.17833 2.45866,-3.36161 1.8195,-1.81942 2.5763,-2.11067 4.88346,-1.89064 2.71623,0.25902 2.72012,0.25539 1.19543,-0.97922 -0.86553,-0.70088 -1.81444,-1.06463 -2.75542,-1.14032 z m -125.875772,3.42519 c 0.422639,-0.0108 0.792618,1.33022 1.004668,3.88725 0.262817,3.16916 0.682805,4.24336 2.166181,5.51929 1.013691,0.87196 1.844008,1.75771 1.844008,1.96696 0,0.20923 -0.798272,0.38152 -1.771949,0.38152 -1.409492,0 -2.040475,-0.60023 -3.107259,-2.95042 -1.4124,-3.11157 -1.619364,-4.73288 -0.932596,-7.2955 0.270541,-1.00951 0.543355,-1.50204 0.796947,-1.5091 z m 18.228124,2.72579 c 0.364068,0 0.615549,0.54815 0.55956,1.21664 -0.43902,5.23856 2.337097,9.18281 6.490051,9.22427 l 2.310313,0.0254 -1.640534,1.36496 c -2.428201,2.0229 -4.748145,1.71226 -7.456572,-0.99618 -1.929716,-1.92971 -2.361175,-2.89216 -2.361175,-5.25649 0,-3.017 0.963005,-5.57864 2.098357,-5.57864 z m 133.065268,0 c -1.39805,0 -3.20475,4.2679 -3.20475,7.57103 0,1.56574 0.3132,2.84867 0.69521,2.84867 0.38199,0 0.69522,-0.86414 0.69522,-1.9203 0,-1.05612 0.62219,-3.0892 1.38619,-4.51464 1.63745,-3.05512 1.73876,-3.98476 0.42813,-3.98476 z m -102.670938,0.93261 c -0.81261,0.0647 -1.643807,0.29269 -2.471392,0.72064 -3.16245,1.63537 -3.386715,2.51379 -0.640114,2.51379 4.252053,0 8.817908,5.44078 7.76603,9.25394 -0.370749,1.34407 -0.222033,1.29596 1.356507,-0.43661 4.41078,-4.84117 -0.322769,-12.50505 -6.011031,-12.05176 z m 88.232578,0.53412 c -1.57211,-0.0452 -3.50301,0.89465 -4.47225,2.3739 -0.62537,0.95442 -1.25512,3.21437 -1.40315,5.02333 l -0.27129,3.28955 1.05554,-2.77662 c 1.36096,-3.591 4.20064,-6.12909 6.39255,-5.71007 1.80097,0.34427 1.85903,-0.70159 0.10186,-1.81008 -0.39644,-0.25009 -0.8791,-0.37498 -1.40313,-0.39001 z m -55.98152,0.70369 c -1.23433,-0.0478 -2.43583,0.28791 -3.62868,1.00467 l -1.73379,1.04283 2.18313,-0.4112 c 2.90702,-0.54913 6.66087,1.08686 8.64352,3.76854 0.87323,1.1811 1.66253,2.14925 1.75499,2.14925 0.0925,0 -0.11945,-1.01625 -0.47477,-2.25521 -0.35535,-1.23894 -0.64859,-2.33797 -0.64859,-2.44172 0,-0.10376 -1.01371,-0.80731 -2.2552,-1.56424 -1.33607,-0.81462 -2.60628,-1.24514 -3.84061,-1.29292 z m 30.89029,0.33914 c -3.09561,0.0599 -6.34389,2.64317 -7.0369,6.51974 l -0.43662,2.429 1.02585,-2.2425 c 1.81981,-3.98717 6.84206,-6.06046 10.34765,-4.27301 l 1.5176,0.77152 -1.54728,-1.60661 c -1.08744,-1.1294 -2.4632,-1.62543 -3.8703,-1.59814 z m -115.489965,0.13977 c 0.272801,-0.0419 0.868194,1.70233 2.166169,5.86269 0.685727,2.19768 1.043626,4.19589 0.79696,4.44256 -0.804941,0.80494 -3.220359,-5.59095 -3.187799,-8.44004 0.01353,-1.17226 0.06101,-1.8401 0.22467,-1.86521 z m 12.717284,2.64096 v 2.7639 c 0,3.55362 1.833092,7.06933 4.217912,8.09242 2.592013,1.11198 2.666615,1.20526 1.509118,1.93728 -2.340775,1.48035 -5.706036,-0.47641 -7.189521,-4.18399 -1.453346,-3.63243 -1.418203,-5.05065 0.169576,-7.01146 z m 135.490041,2.43323 c -0.57404,0.056 -1.28389,0.57597 -2.28063,1.57271 -1.88283,1.88284 -3.3859,6.61773 -2.68335,8.44852 0.36203,0.94349 0.83168,0.40219 2.04748,-2.35268 0.97897,-2.21823 2.24341,-3.88073 3.32768,-4.37477 1.42458,-0.64908 1.62233,-1.03449 1.05981,-2.08563 -0.45751,-0.85482 -0.89694,-1.26417 -1.47099,-1.20815 z m -109.996102,1.11491 c -0.950628,-0.0484 -1.942539,0.15823 -3.018238,0.61042 -2.776658,1.1675 -2.719533,2.09552 0.165314,2.63671 3.248387,0.60942 6.254518,3.94001 6.320503,7.003 0.06006,2.78687 0.17228,2.86336 1.907598,1.29291 0.852529,-0.77154 1.271719,-2.12641 1.271719,-4.11616 0,-2.35672 -0.422274,-3.38115 -2.051716,-5.01059 -1.54395,-1.54396 -3.010811,-2.33572 -4.59518,-2.41629 z m 90.733652,1.03433 c -3.27194,-0.30105 -7.70305,3.61653 -7.67278,8.26623 l 0.0122,2.34847 1.31836,-2.89531 c 1.65525,-3.64569 4.12471,-5.33167 7.27429,-4.96398 2.07822,0.24264 2.30078,0.12377 1.74227,-0.91989 -0.62499,-1.16779 -1.58423,-1.73516 -2.67488,-1.83552 z m -60.669964,0.54684 c -2.295068,0.003 -6.748647,2.24918 -6.748647,3.404 0,0.35635 -0.1885,1.13986 -0.419677,1.74227 -0.378514,0.98634 -0.225848,0.995 1.559994,0.0636 1.090645,-0.56883 2.766931,-1.03788 3.721928,-1.03857 2.551446,-0.003 5.883741,2.29799 6.905493,4.76474 1.17868,2.84559 2.123775,2.12752 2.123775,-1.6151 0,-2.57891 -0.352732,-3.32212 -2.45443,-5.16746 -1.659959,-1.45746 -3.178574,-2.15555 -4.688436,-2.15346 z m 30.979324,0.81814 c -0.45312,0.0108 -0.90063,0.0668 -1.32685,0.17385 -2.13922,0.53691 -5.14625,3.37738 -5.14625,4.858 0,0.81879 0.55988,0.66903 2.5265,-0.66553 3.05403,-2.07254 5.40571,-2.16263 8.41036,-0.33065 1.84182,1.12298 2.25944,1.1851 2.25944,0.34336 0,-2.30746 -3.55142,-4.4525 -6.7232,-4.37899 z m -93.904501,0.1949 c 0.197373,-0.0108 0.36147,0.53565 0.593472,1.76347 0.587034,3.10658 1.890027,5.6058 3.666819,7.01993 0.941795,0.74957 1.144917,1.27304 0.618917,1.59815 -2.027935,1.25332 -6.49653,-7.00477 -5.294637,-9.78383 0.166085,-0.384 0.297013,-0.59058 0.415429,-0.59772 z m 17.64312,3.85334 c 0.582448,0.076 1.030112,0.77154 1.030112,2.05172 0,2.11403 3.541789,6.9601 5.103866,6.9818 0.437925,0.007 1.244692,0.29307 1.793146,0.6401 0.826341,0.52291 0.841978,0.81805 0.08901,1.7253 -0.506263,0.61002 -1.969552,1.09793 -3.306485,1.09793 -4.58417,0 -8.528578,-6.50228 -6.562136,-10.81817 0.550537,-1.20826 1.270041,-1.75478 1.852489,-1.67868 z m 115.884211,1.47944 c -2.28888,-0.32931 -5.58837,2.04173 -6.49853,5.42182 -0.39516,1.46787 -0.52381,3.16735 -0.28826,3.78126 0.60175,1.56811 0.82437,1.43089 1.9288,-1.21238 1.26818,-3.03518 3.75177,-5.30734 5.79909,-5.30734 1.41459,0 1.5312,-0.18471 0.88596,-1.39044 -0.4129,-0.77148 -1.06409,-1.18316 -1.82706,-1.29292 z m -87.253335,1.27597 c -1.095124,0.048 -2.160325,0.41091 -3.141172,1.09792 -2.232342,1.56361 -1.899793,2.39085 0.958027,2.39085 3.420586,0 7.223433,3.69922 7.223433,7.02843 v 2.31031 l 1.526068,-1.53031 c 2.497324,-2.49731 2.08502,-6.08122 -1.030099,-8.93603 -1.794877,-1.64487 -3.711052,-2.44098 -5.536257,-2.36117 z m 62.068855,0.75456 c -1.36006,0.003 -2.77389,0.56351 -4.09919,1.67867 -2.42486,2.04039 -3.97524,5.40295 -3.28107,7.12168 0.45299,1.12161 0.54464,1.10013 1.05553,-0.22042 1.5071,-3.89559 7.06618,-6.24728 10.46209,-4.42984 1.94368,1.04022 1.7327,-0.39111 -0.36455,-2.48837 -1.10976,-1.10981 -2.41273,-1.66473 -3.77281,-1.66172 z m -29.75421,0.72911 c -2.36928,-0.0973 -4.8788,0.8347 -6.59605,2.95466 -2.009904,2.4813 -1.465737,3.18953 1.34804,1.755 1.41774,-0.72279 3.00967,-1.31412 3.53965,-1.31412 1.93492,0 5.83629,2.34432 6.56636,3.9466 1.07939,2.36899 2.17668,0.86962 1.60238,-2.19162 -0.59988,-3.19764 -3.41418,-5.02557 -6.46038,-5.15052 z m -70.31816,0.66979 c 0.374456,0.0495 0.67826,0.68386 0.67826,1.86946 0,2.55305 3.076783,6.98054 5.2268,7.52015 0.944351,0.23703 1.71684,0.71069 1.71684,1.05128 0,0.34058 -0.902917,0.61891 -2.009336,0.61891 -1.422139,0 -2.627129,-0.70036 -4.107679,-2.38661 -2.478576,-2.82284 -3.188421,-4.74167 -2.61129,-7.04113 0.288005,-1.1475 0.731949,-1.68158 1.106405,-1.63206 z m 133.12462,1.54727 c 0.16018,-0.0682 0.16843,0.41911 0.18231,1.39468 0.0333,2.34832 -0.92309,4.33675 -3.31498,6.90123 -1.76657,1.89407 -2.94482,2.3371 -3.83639,1.44554 -0.84007,-0.84008 -0.4805,-1.61839 0.75457,-1.64053 1.32039,-0.0237 3.15103,-2.22902 5.11658,-6.15941 0.62376,-1.24729 0.93779,-1.87327 1.09793,-1.94151 z m -138.423491,1.85674 c 0.297527,0.12417 0.871399,1.00844 1.848242,2.78085 1.154277,2.09427 2.557938,4.06258 3.11574,4.37473 0.557775,0.31217 1.013149,0.86635 1.013149,1.22935 0,1.08636 -1.79136,0.74723 -2.933463,-0.55533 -1.681467,-1.91773 -3.319512,-5.5117 -3.306499,-7.25733 0.0041,-0.44607 0.08427,-0.64677 0.262831,-0.57227 z m 27.320983,0.8902 c 0.178611,0.0529 0.185442,0.46281 0.186524,1.27596 0.0054,3.95337 5.585835,9.01142 8.643517,7.83809 1.475058,-0.56604 1.361552,0.65117 -0.190745,2.05598 -1.35698,1.22804 -4.397104,1.43948 -6.795288,0.47053 -4.062404,-1.6414 -5.913122,-8.18704 -3.047902,-10.78001 0.676176,-0.61201 1.02531,-0.91356 1.203907,-0.86055 z m 89.936698,1.20813 c -3.95596,0 -8.10535,5.40662 -6.7868,8.84277 0.37839,0.98605 0.66909,0.78195 1.5939,-1.12761 1.32035,-2.72624 4.5781,-4.92997 7.29549,-4.93431 1.05049,-0.001 1.9076,-0.25396 1.9076,-0.55955 0,-1.22845 -1.79251,-2.2213 -4.01019,-2.2213 z m -57.164231,1.44132 c -0.498567,-0.001 -1.090362,0.0549 -1.844008,0.13976 -2.282257,0.25727 -3.647678,0.85192 -4.578231,1.99662 l -1.326829,1.63204 3.976264,0.36033 c 3.24046,0.29458 4.281705,0.72082 5.638009,2.29759 0.915213,1.06401 1.674135,2.62093 1.687162,3.45911 l 0.02124,1.52184 1.369236,-1.64053 c 2.043951,-2.45348 1.712809,-4.7476 -1.085208,-7.54561 -1.702664,-1.70271 -2.361905,-2.21532 -3.857578,-2.22126 z m 30.021281,0.16538 c -3.74978,0.0611 -7.75851,3.27559 -7.71939,6.6469 0.0183,1.56893 0.11769,1.65187 0.72912,0.60195 1.89559,-3.25453 8.21544,-4.29508 11.30992,-1.86096 1.77812,1.39859 1.83129,1.40096 1.83129,0.0933 0,-1.93068 -2.45041,-4.77013 -4.57398,-5.30312 -0.51267,-0.12864 -1.04128,-0.18686 -1.57696,-0.17796 z m -74.904844,2.96737 c 0.280443,0.0755 0.571721,0.5269 0.792712,1.40737 1.008875,4.01961 5.343917,7.86229 7.804177,6.9182 0.637165,-0.24449 0.929714,-0.0632 0.754553,0.47055 -0.156833,0.47775 -1.295162,0.96833 -2.526502,1.08944 -3.034524,0.29854 -7.723637,-4.19145 -7.723637,-7.39298 0,-1.70393 0.431283,-2.61849 0.898697,-2.49258 z m 114.031724,0.55107 c 0.64463,0.14824 0.35532,2.59986 -0.66554,4.57398 -0.56537,1.09329 -1.85999,2.64021 -2.87411,3.43792 -2.12208,1.66925 -5.82027,1.9672 -5.82027,0.47055 0,-0.61691 0.48121,-0.84946 1.31411,-0.63163 1.63304,0.42705 7.01995,-4.23039 7.01995,-6.0704 0,-0.69698 0.30897,-1.45957 0.69097,-1.69565 0.13094,-0.0809 0.2428,-0.10591 0.33489,-0.0848 z m -121.458632,1.77618 c 0.40354,0.038 0.990627,0.71928 1.242055,1.72108 0.231285,0.92154 1.871752,2.95322 3.645622,4.51464 2.600941,2.28947 2.949128,2.83596 1.793146,2.83596 -2.420193,0 -7.100486,-5.51867 -7.100486,-8.37647 0,-0.50775 0.177543,-0.71804 0.419663,-0.69521 z m 96.320782,1.55576 c -1.35275,-0.12106 -2.89913,0.163 -4.38747,0.9326 -1.9514,1.00912 -4.14583,4.17565 -4.14583,5.98561 0,0.47241 0.90174,-0.007 2.00509,-1.06402 2.284,-2.18822 6.69668,-3.098 9.00808,-1.86097 1.25214,0.67011 1.48793,0.60652 1.48793,-0.39 0,-2.07578 -1.71322,-3.40137 -3.9678,-3.60322 z m -65.205798,1.01313 c 0.355464,-0.11891 0.761276,0.4269 1.411616,1.79739 1.75105,3.69007 5.788849,5.21902 9.944928,3.76856 2.112439,-0.73723 2.085303,0.8967 -0.04667,2.89955 -4.969041,4.66816 -15.226606,-2.48863 -11.653273,-8.1306 0.11471,-0.18102 0.224874,-0.29527 0.343371,-0.3349 z m 34.942888,0.29674 c -1.37281,0.043 -2.74712,0.37007 -3.91694,0.97499 -2.18498,1.1299 -2.853761,2.36415 -2.772369,5.11659 0.03016,1.01923 0.211617,1.45628 0.406962,0.97076 0.557747,-1.38624 4.097777,-2.9377 6.702007,-2.9377 1.31651,0 3.15299,0.61432 4.12889,1.38195 1.49305,1.17443 1.81751,1.22563 2.1577,0.33912 0.59616,-1.55358 -0.87354,-4.23985 -2.79782,-5.11658 -1.16716,-0.5318 -2.53563,-0.77208 -3.90843,-0.72913 z m -46.218891,3.42943 c 0.363715,0 0.475043,0.30325 0.245868,0.67403 -0.62376,1.00928 1.51369,4.71366 3.454863,5.9856 0.937276,0.61411 2.813763,1.14854 4.167036,1.18696 1.382465,0.0392 2.355642,0.39093 2.221291,0.80119 -0.305278,0.93182 -4.545455,1.20764 -6.439188,0.41966 -1.753242,-0.72947 -5.154755,-4.64777 -5.154755,-5.93898 0,-1.49202 0.787518,-3.12846 1.504885,-3.12846 z m 89.957901,1.03433 c 0.10226,-0.0196 0.20423,-0.001 0.29673,0.0552 1.64637,1.0175 -1.53816,5.81583 -5.08267,7.66004 -2.42515,1.26181 -4.33491,1.23669 -5.41757,-0.0678 -0.74123,-0.89314 -0.50834,-1.04283 1.6278,-1.04283 2.70355,0 6.96193,-3.07481 7.76603,-5.60832 0.17759,-0.55942 0.50283,-0.93861 0.80968,-0.9962 z m 6.96482,1.1573 c 0.11444,0.0534 0.13754,0.47927 0.15686,1.31836 0.0419,1.82063 -3.00732,5.29564 -5.98985,6.82494 -0.83436,0.42783 -1.85232,0.77575 -2.25943,0.77575 -1.35234,0 -0.76248,-1.41143 0.84358,-2.02205 1.75867,-0.66865 5.26254,-3.87882 6.53668,-5.9856 0.39133,-0.64714 0.59779,-0.96486 0.71217,-0.9114 z m -106.587869,0.99194 c 0.215026,-0.0521 0.666329,0.50718 1.543031,1.79738 0.943729,1.38882 2.968309,3.10136 4.497691,3.8067 1.529356,0.70533 2.786952,1.51936 2.797801,1.80586 0.05627,1.635 -5.676182,-0.9817 -7.651565,-3.49301 -0.748154,-0.95111 -1.360754,-2.38665 -1.360754,-3.1878 0,-0.44657 0.04478,-0.69783 0.17381,-0.72913 z m 34.790284,2.25943 c 0.435544,0.0678 1.026758,0.54059 1.708346,1.46249 2.059859,2.7861 5.774253,3.78974 9.0208,2.43326 1.343858,-0.56157 2.575686,-0.88768 2.738457,-0.7249 0.616401,0.61639 -2.027935,3.76148 -3.49301,4.15431 -4.872093,1.30635 -9.750815,-0.74944 -10.563831,-4.45105 -0.432338,-1.96839 -0.136691,-2.987 0.589238,-2.87411 z m 40.741955,0.11444 c 1.36433,0 0.66148,2.79168 -1.2378,4.91733 -1.49696,1.67542 -2.63249,2.22404 -5.03606,2.43326 -3.73006,0.32458 -6.11356,-0.74113 -6.67657,-2.98432 -0.55469,-2.21003 0.1513,-2.76522 1.71259,-1.35228 0.70092,0.6343 2.34297,1.15019 3.64987,1.1488 2.46348,-0.003 6.89276,-2.22485 6.89276,-3.45911 0,-0.38759 0.31322,-0.70368 0.69521,-0.70368 z m 10.33493,2.77661 c 2.41333,0 1.57972,4.0046 -1.27173,6.11276 -2.15865,1.59595 -7.61853,2.76524 -8.54178,1.82706 -0.98657,-1.00254 -0.52147,-1.78032 0.81391,-1.3565 2.76729,0.87832 9.88781,-4.01707 8.68166,-5.96865 -0.20833,-0.3371 -0.0641,-0.61467 0.31794,-0.61467 z m -64.311348,2.09411 c 0.246151,-0.059 0.758786,0.3603 1.725308,1.32684 2.480902,2.48089 6.600147,3.31982 8.897866,1.81434 1.581434,-1.03619 1.67868,-1.02068 1.67868,0.27977 0,0.75935 -0.604916,1.70715 -1.343791,2.10259 -3.940201,2.10873 -11.157303,-1.07245 -11.157303,-4.91734 0,-0.36281 0.05154,-0.5708 0.19924,-0.6062 z m 73.845078,0.18231 c 0.20032,-0.0672 0.24034,0.24966 0.2501,0.90293 0.025,1.64204 -2.07691,3.77895 -5.32853,5.42182 -2.49681,1.26151 -5.06997,1.47862 -5.06997,0.42813 0,-0.38199 0.48428,-0.69519 1.07249,-0.69519 1.87913,0 6.36812,-2.66379 7.85929,-4.66302 0.65377,-0.87661 1.01627,-1.32727 1.21662,-1.39467 z M 61.803341,166.936 c 0.358034,0.0887 0.908193,0.53178 1.576944,1.38195 1.680885,2.13688 4.793041,3.91269 6.858852,3.91269 0.782959,0 1.424345,0.3132 1.424345,0.69519 0,2.24 -8.161914,-0.89248 -9.665148,-3.70919 -0.848403,-1.5897 -0.791725,-2.42846 -0.194979,-2.28064 z m 49.970479,1.19966 c 0.61386,0.11606 -0.11417,2.26872 -1.41161,3.77703 -1.1543,1.34195 -2.42987,1.92948 -4.68845,2.15346 -3.76044,0.37297 -6.311295,-0.83022 -7.214943,-3.39974 -0.812935,-2.31158 -0.152315,-3.14513 1.322594,-1.6702 2.368339,2.36833 6.002169,2.12456 11.644809,-0.78001 0.14474,-0.0744 0.25991,-0.097 0.3476,-0.0805 z m 11.44133,3.39977 c 1.27957,0 0.13771,3.02677 -1.64053,4.3493 -3.3712,2.50727 -10.32221,2.16206 -10.32221,-0.51292 0,-0.73377 0.48439,-0.81894 2.06868,-0.36457 2.58247,0.74064 6.33488,-0.23722 8.00766,-2.08564 0.68945,-0.76183 1.53703,-1.38617 1.8864,-1.38617 z m -38.478298,0.50022 1.818577,1.42856 c 2.615659,2.05749 6.714329,2.59526 9.355689,1.22934 1.847201,-0.95531 2.144985,-0.96698 2.144985,-0.089 0,0.56115 -0.694046,1.50794 -1.543031,2.10259 -3.352843,2.34842 -11.065725,0.33689 -11.538834,-3.00977 z m 48.796268,0.54259 -0.20349,1.73803 c -0.14689,1.26796 -1.03505,2.15686 -3.29802,3.29801 -3.25903,1.64342 -6.59718,2.04003 -7.32092,0.86902 -0.25098,-0.40613 0.46702,-0.69521 1.72955,-0.69521 2.59666,0 6.1471,-1.68272 7.85081,-3.72194 z m -60.190958,2.03477 c 0.383275,-0.0804 1.245503,0.28081 2.390853,1.1276 1.254539,0.92752 3.495756,1.68454 5.595614,1.88639 1.927389,0.18514 3.334852,0.607 3.128443,0.94108 -1.058763,1.7131 -8.634305,-0.0173 -10.63589,-2.429 -0.768364,-0.92582 -0.862282,-1.44575 -0.47902,-1.52607 z m 36.473198,2.98856 c 0.18045,0.003 0.30121,0.0334 0.34336,0.10172 0.52429,0.84828 -0.58621,2.04908 -2.61128,2.81901 -3.43402,1.30561 -8.641134,0.5943 -9.838942,-1.3438 -0.819009,-1.32518 0.01731,-1.47234 3.319212,-0.58921 2.66357,0.71239 3.60753,0.67038 5.99408,-0.26708 1.16801,-0.45882 2.25224,-0.72914 2.79357,-0.72064 z m 10.5596,1.649 c 0.43202,-0.0484 0.60194,0.17472 0.60194,0.65706 0,0.40149 -1.08309,1.18031 -2.4078,1.73381 -2.75518,1.15119 -8.41552,1.34793 -9.05472,0.31369 -0.26494,-0.42869 0.98403,-0.70546 3.25987,-0.72065 2.02801,-0.0135 4.46683,-0.47146 5.42181,-1.01739 1.05,-0.60022 1.74686,-0.91801 2.1789,-0.96652 z m -34.48931,0.85206 c 0.253768,-0.0311 0.663137,0.0345 1.233586,0.24163 0.859482,0.31223 3.513355,0.56804 5.900826,0.56804 4.58789,0 5.51103,0.63316 2.560401,1.75499 -2.31222,0.87909 -4.191344,0.68586 -8.117869,-0.83509 -1.721927,-0.66702 -2.33826,-1.63655 -1.576944,-1.72957 z"
     id="path903"
     inkscape:connector-curvature="0" />
</svg>
