<?xml version="1.0" encoding="UTF-8" standalone="no"?>
<!-- Created with Inkscape (http://www.inkscape.org/) -->

<svg
   xmlns:dc="http://purl.org/dc/elements/1.1/"
   xmlns:cc="http://creativecommons.org/ns#"
   xmlns:rdf="http://www.w3.org/1999/02/22-rdf-syntax-ns#"
   xmlns:svg="http://www.w3.org/2000/svg"
   xmlns="http://www.w3.org/2000/svg"
   xmlns:sodipodi="http://sodipodi.sourceforge.net/DTD/sodipodi-0.dtd"
   xmlns:inkscape="http://www.inkscape.org/namespaces/inkscape"
   width="400"
   height="400"
   viewBox="0 0 400 400"
   version="1.1"
   id="svg989"
   inkscape:version="0.92.2 2405546, 2018-03-11"
   sodipodi:docname="gcl-logo-bw.svg">
  <defs
     id="defs983" />
  <sodipodi:namedview
     id="base"
     pagecolor="#565656"
     bordercolor="#666666"
     borderopacity="1.0"
     inkscape:pageopacity="0.61176471"
     inkscape:pageshadow="2"
     inkscape:zoom="1"
     inkscape:cx="175.28571"
     inkscape:cy="235"
     inkscape:document-units="px"
     inkscape:current-layer="layer1"
     showgrid="false"
     units="px"
     borderlayer="true"
     inkscape:showpageshadow="false"
     inkscape:pagecheckerboard="true" />
  <metadata
     id="metadata986">
    <rdf:RDF>
      <cc:Work
         rdf:about="">
        <dc:format>image/svg+xml</dc:format>
        <dc:type
           rdf:resource="http://purl.org/dc/dcmitype/StillImage" />
        <dc:title></dc:title>
      </cc:Work>
    </rdf:RDF>
  </metadata>
  <g
     inkscape:label="Layer 1"
     inkscape:groupmode="layer"
     id="layer1"
     transform="translate(0,102.70584)">
    <path
       style="clip-rule:nonzero;fill:#ffffff;fill-rule:nonzero;stroke:none;stroke-width:5.99171829;stroke-miterlimit:4;fill-opacity:0.40944883"
       d="m 48.537109,41.232422 c -6.5909,0 -11.984375,5.393465 -11.984375,11.984375 V 359.39258 c 0,6.59089 5.393475,11.98437 11.984375,11.98437 h 32.955079 v -0.006 -309.765621 c 0.01265,-8.307817 4.326373,-16.016642 11.40039,-20.373047 z m 70.357421,0 242.0332,100.699218 c 2.07588,0.87424 4.01816,2.03671 5.76954,3.45313 V 53.216797 c 0,-6.59091 -5.39347,-11.984375 -11.98438,-11.984375 z M 366.69727,182.73828 c -1.55838,1.26225 -3.26902,2.32393 -5.0918,3.16016 l -216.00586,97.86718 v 87.60547 0.006 H 355.3125 c 6.5909,0 11.98242,-5.39348 11.98242,-11.98437 h -0.59765 z"
       transform="translate(0,-102.70584)"
       id="path921"
       inkscape:connector-curvature="0"
       sodipodi:nodetypes="ssssccccscccssccccccsccc" />
    <g
       transform="matrix(5.9917183,0,0,5.9917183,10.189211,-6.039086)"
       id="flag"
       style="clip-rule:nonzero;fill-rule:nonzero;stroke:#000000;stroke-miterlimit:4">
      <path
         inkscape:connector-curvature="0"
         style="stroke:none;fill:#ffffff"
         d="M 15.9,-5.8517625 V 45.848236 h 2.7 v -17.2 l 38.4,-17.4 z"
         id="path928" />
    </g>
  </g>
</svg>
